<svg
  t="1745127370321"
  class="icon"
  viewBox="0 0 1024 1024"
  version="1.1"
  xmlns="http://www.w3.org/2000/svg"
  p-id="3290"
 

>
  <path
    d="M308.1728 161.5104a172.5952 172.5952 0 0 1 106.24 322.1248l-5.8112 3.072-4.5056 2.1248 2.8928 4.4544a473.9328 473.9328 0 0 0 112.1024 118.4512l10.24 7.424 4.0192 2.7392 1.792-3.9168a172.288 172.288 0 0 1 185.2416-95.9232l6.528 1.28 6.016 1.3824a172.2624 172.2624 0 0 1-35.9424 339.1744l-6.0416 0.1024h-1.3568c-293.2736-0.384-530.944-238.0288-531.328-531.3024a172.5952 172.5952 0 0 1 149.9136-171.1872z m22.784 62.0544a115.6608 115.6608 0 0 0-23.3472 2.2016 109.7984 109.7984 0 0 0-85.8624 106.88c1.0752 257.2032 209.3056 465.4336 466.4832 466.5344 46.848 0 88.448-29.952 103.5776-74.8544 4.5824-10.5984 7.3728-21.888 8.2432-32.8704a109.1328 109.1328 0 0 0-215.9872-21.4016l-0.9472 5.1968a30.5664 30.5664 0 0 1-17.2032 24.192 31.7952 31.7952 0 0 1-29.7984-0.1024 532.0448 532.0448 0 0 1-208.2304-213.76 31.3344 31.3344 0 0 1-0.0512-28.7232c4.4544-9.0368 12.9024-15.4368 22.8864-17.3312a108.8 108.8 0 0 0-19.7888-215.9616z"
    p-id="3291"
  ></path>
</svg>
